<?xml version="1.0" encoding="utf-8"?>
<!-- Generator: Adobe Illustrator 18.1.1, SVG Export Plug-In . SVG Version: 6.00 Build 0)  -->
<svg version="1.1" id="Layer_1" xmlns="http://www.w3.org/2000/svg" xmlns:xlink="http://www.w3.org/1999/xlink" x="0px" y="0px"
	 viewBox="0 0 612 792" enable-background="new 0 0 612 792" xml:space="preserve">
<path fill="#F9F9F9" d="M572.2,592.4L257.6,694.9c-13.9,4.5-29.3-0.4-37.9-12.4L24.8,415.1c-8.6-12-8.6-27.8,0-39.8l194.5-267.7
	c8.6-12,24-16.9,37.9-12.4l315,102.1c13.9,4.5,23.3,17.6,23.3,32.3l0.4,330.8C595.5,575.1,586.1,587.9,572.2,592.4z"/>
<g id="MFFTXY.tif">
	<g>
		
			<linearGradient id="SVGID_1_" gradientUnits="userSpaceOnUse" x1="126.7773" y1="672.0773" x2="56.2273" y2="742.6273" gradientTransform="matrix(3.7546 0 0 -3.7546 0 3050.5032)">
			<stop  offset="0" style="stop-color:#EF4423"/>
			<stop  offset="0.5393" style="stop-color:#EE2E62"/>
			<stop  offset="1" style="stop-color:#EC008C"/>
		</linearGradient>
		<path fill="url(#SVGID_1_)" d="M328.5,409.1c18.4-5.6,29.3-21.4,28.2-39c-1.5-18.4-12.4-31.2-31.5-34.2c-11.3-1.9-22.5-2.6-34.2-3
			c-27.8-1.1-83-1.1-83-1.1v-66.5c0,0,89.4-1.1,135.2,0.4c51.4,1.5,81.9,36,89.7,91.6c4.9,34.2-10.1,84.5-58.6,102.5
			c-3.4,1.1-12.8,4.5-12.8,4.5s53.3,67.2,78.1,99.1c-30.4,0-60.8,0-91.6,0c-34.9-49.2-122.8-153.9-122.8-153.9"/>
	</g>
</g>
</svg>
